<?xml version="1.0" encoding="UTF-8"?>
<svg id="uuid-2beda607-45ec-4c5e-a0d7-66492358ea4c" xmlns="http://www.w3.org/2000/svg" version="1.1" viewBox="0 0 249.6 247.8">
  <!-- Generator: Adobe Illustrator 29.1.0, SVG Export Plug-In . SVG Version: 2.1.0 Build 142)  -->
  <defs>
    <style>
      .st0 {
        fill: #231f20;
      }

      .st1 {
        stroke: #010101;
        stroke-linecap: round;
        stroke-width: 8.5px;
      }

      .st1, .st2 {
        fill: none;
        stroke-linejoin: round;
      }

      .st2 {
        stroke: #231f20;
        stroke-linecap: square;
        stroke-width: 6px;
      }
    </style>
  </defs>
  <g id="uuid-89f78b25-2410-498b-99e8-b9be8a67569d">
    <g>
      <rect id="uuid-6d93f417-f005-48d6-90c9-af8e692d70fa" class="st1" x="4.3" y="4.3" width="239.3" height="239.3" rx="15.7" ry="15.7"/>
      <path class="st2" d="M11.5,66.8l20,.5h6.8c0,.1,1.4.2,1.4.2l20.9,1.3,3.8.5,3.8.8,4.8,1.2,3.1,1,4.1,1.7,5.1,2.6,5.4,3.7,3.2,2.5,4.4,4,3.6,3.7,6.3,7.6,4.1,5.8,3.9,6.2,2.1,3.8,3.6,7.3,5.1,12.3,5.8,16.9,9.7,30,3.7,9,3.2,5.5,2.9,3.6,3.1,2.9,5.8,4.2,3.3,1.9,2,1,4.3,1.7,3.6,1,12.8,2.5,17.4,2.5,3.8.2,10.7.3,5.4.2,11.3.4"/>
    </g>
  </g>
  <g>
    <path class="st0" d="M69.3,56.5v-28.7h3.2v2.7c.8-1.1,1.6-1.8,2.6-2.4s2.1-.8,3.5-.8,3.3.5,4.7,1.4c1.4.9,2.4,2.2,3.1,3.9s1,3.5,1,5.5-.4,4-1.1,5.7-1.9,3-3.3,3.9-3,1.4-4.6,1.4-2.2-.2-3.2-.7-1.7-1.1-2.3-1.9v10.1h-3.5ZM72.4,38.3c0,2.7.5,4.6,1.6,5.9,1.1,1.3,2.4,1.9,3.9,1.9s2.9-.7,4-2c1.1-1.3,1.7-3.4,1.7-6.1s-.5-4.6-1.6-5.9c-1.1-1.3-2.4-2-3.9-2s-2.8.7-4,2.1c-1.2,1.4-1.7,3.4-1.7,6.1Z"/>
    <path class="st0" d="M91.3,56.5l-.4-3.3c.8.2,1.4.3,2,.3s1.4-.1,1.9-.4c.5-.3.9-.6,1.2-1.1.2-.4.6-1.2,1.1-2.6,0-.2.2-.5.3-.9l-7.9-20.8h3.8l4.3,12c.6,1.5,1.1,3.1,1.5,4.8.4-1.6.9-3.2,1.4-4.7l4.4-12.1h3.5l-7.9,21.1c-.8,2.3-1.5,3.8-2,4.7-.6,1.2-1.3,2-2.1,2.5-.8.5-1.8.8-2.9.8s-1.4-.1-2.3-.4h0Z"/>
    <path class="st0" d="M119.2,48.5v-25.3h-9.4v-3.4h22.7v3.4h-9.5v25.3h-3.8Z"/>
    <path class="st0" d="M149.8,37.3v-3.4h12.1s0,10.6,0,10.6c-1.9,1.5-3.8,2.6-5.8,3.3s-4,1.1-6.1,1.1-5.4-.6-7.7-1.8c-2.3-1.2-4-2.9-5.2-5.2-1.2-2.3-1.8-4.8-1.8-7.6s.6-5.4,1.7-7.8c1.2-2.4,2.8-4.2,5-5.4s4.7-1.8,7.6-1.8,3.9.3,5.6,1c1.7.7,3,1.6,3.9,2.8,1,1.2,1.7,2.8,2.2,4.7l-3.4.9c-.4-1.5-1-2.6-1.6-3.4-.6-.8-1.5-1.5-2.7-2-1.2-.5-2.5-.8-3.9-.8s-3.2.3-4.5.8-2.3,1.2-3.1,2.1-1.4,1.8-1.8,2.8c-.7,1.8-1.1,3.7-1.1,5.8s.4,4.7,1.3,6.4,2.2,3,3.8,3.8c1.7.8,3.5,1.2,5.4,1.2s3.2-.3,4.8-.9c1.6-.6,2.7-1.3,3.6-2v-5.3h-8.4Z"/>
    <path class="st0" d="M164.4,48.5l11-28.6h4.1l11.7,28.6h-4.3l-3.3-8.7h-12l-3.1,8.7h-4ZM172.6,36.8h9.7l-3-7.9c-.9-2.4-1.6-4.4-2-5.9-.4,1.8-.9,3.7-1.5,5.5l-3.1,8.4Z"/>
  </g>
</svg>