<?xml version="1.0" encoding="UTF-8"?>
<svg id="uuid-2beda607-45ec-4c5e-a0d7-66492358ea4c" data-name="Layer 1" xmlns="http://www.w3.org/2000/svg" width="121.15751mm" height="87.40637mm" viewBox="0 0 343.43861 247.7661">
  <g id="uuid-89f78b25-2410-498b-99e8-b9be8a67569d" data-name="line2d 64">
    <g>
      <rect id="uuid-6d93f417-f005-48d6-90c9-af8e692d70fa" data-name="rect848" x="4.25197" y="4.25196" width="239.26216" height="239.26217" rx="15.65267" ry="15.65267" transform="translate(247.7661 0) rotate(90)" fill="none" stroke="#010101" stroke-linecap="round" stroke-linejoin="round" stroke-width="8.50394"/>
      <path d="M340.43861,217.48027h0" fill="none" stroke="#f2b72f" stroke-linecap="square" stroke-linejoin="round" stroke-width="6"/>
      <path d="M11.52194,66.75805l19.98834.45265,6.84987.14727,1.38324.03989,20.9446,1.27937,3.76665.53077,3.82478.75474,4.81824,1.23949,3.07353,1.01797,4.06924,1.65459,5.12828,2.63513,5.44204,3.65066,3.18905,2.54953,4.42919,4.01575,3.56617,3.68593,6.30806,7.60166,4.11917,5.84675,3.86427,6.20355,2.11437,3.8019,3.60863,7.28964,5.09697,12.26077,5.84077,16.91865,9.69163,29.9679,3.73757,9.03505,3.19427,5.5246,2.92969,3.57978,3.11006,2.85205,5.79232,4.20288,3.29563,1.93563,2.03834,1.01614,4.29579,1.65213,3.64814,1.01306,12.84119,2.49339,17.38962,2.50689,3.82253.22796,10.73874.32306,5.4219.17519,11.29132.35653" fill="none" stroke="#231f20" stroke-linecap="square" stroke-linejoin="round" stroke-width="6"/>
    </g>
  </g>
  <g>
    <path d="M69.25367,56.48497v-28.69141h3.20312v2.69531c.75488-1.05469,1.6084-1.8457,2.55859-2.37305s2.10254-.79102,3.45703-.79102c1.77051,0,3.33301.45605,4.6875,1.36719,1.35449.91162,2.37598,2.19727,3.06641,3.85742s1.03516,3.47998,1.03516,5.45898c0,2.12256-.38086,4.0332-1.14258,5.73242s-1.86816,3.00146-3.32031,3.90625-2.97852,1.35742-4.58008,1.35742c-1.17188,0-2.22363-.24756-3.1543-.74219s-1.69629-1.11963-2.29492-1.875v10.09766h-3.51562ZM72.43727,38.28185c0,2.66943.54004,4.64209,1.62109,5.91797,1.08105,1.27637,2.38965,1.91406,3.92578,1.91406,1.5625,0,2.90039-.66064,4.01367-1.98242,1.11328-1.32129,1.66992-3.36914,1.66992-6.14258,0-2.64307-.54395-4.62207-1.63086-5.9375-1.08691-1.31494-2.38574-1.97266-3.89648-1.97266-1.49707,0-2.82227.7002-3.97461,2.09961-1.15234,1.3999-1.72852,3.43457-1.72852,6.10352Z" fill="#231f20"/>
    <path d="M91.34352,56.52404l-.39062-3.30078c.76855.20801,1.43848.3125,2.01172.3125.78125,0,1.40625-.13037,1.875-.39062.46875-.26074.85254-.625,1.15234-1.09375.22168-.35156.5791-1.22412,1.07422-2.61719.06543-.19531.16895-.48193.3125-.85938l-7.87109-20.78125h3.78906l4.31641,12.01172c.55957,1.52344,1.06152,3.125,1.50391,4.80469.40332-1.61426.88574-3.18994,1.44531-4.72656l4.43359-12.08984h3.51562l-7.89062,21.09375c-.84668,2.27832-1.50391,3.84766-1.97266,4.70703-.625,1.15869-1.34082,2.0083-2.14844,2.54883-.80762.54004-1.77051.81055-2.89062.81055-.67676,0-1.43262-.14355-2.26562-.42969Z" fill="#231f20"/>
    <path d="M119.23414,48.53576v-25.25391h-9.43359v-3.37891h22.69482v3.37891h-9.47266v25.25391h-3.78857Z" fill="#231f20"/>
    <path d="M149.78053,37.30529v-3.35938l12.12891-.01953v10.625c-1.8623,1.48438-3.78223,2.60107-5.76172,3.34961s-4.01074,1.12305-6.09375,1.12305c-2.8125,0-5.36816-.60205-7.66602-1.80664-2.29785-1.2041-4.0332-2.9458-5.20508-5.22461-1.17188-2.27832-1.75781-4.82422-1.75781-7.63672,0-2.78613.58301-5.38721,1.74805-7.80273,1.16504-2.41504,2.8418-4.20898,5.0293-5.38086s4.70703-1.75781,7.55859-1.75781c2.07031,0,3.94238.33545,5.61523,1.00586,1.67285.6709,2.98535,1.60498,3.93555,2.80273.9502,1.19824,1.67285,2.76074,2.16797,4.6875l-3.41797.9375c-.42969-1.45801-.96387-2.604-1.60156-3.4375-.6377-.83301-1.5498-1.50049-2.73438-2.00195-1.18457-.50098-2.5-.75195-3.94531-.75195-1.73145,0-3.22949.26367-4.49219.79102s-2.28223,1.2207-3.05664,2.08008-1.37695,1.80371-1.80664,2.83203c-.72949,1.771-1.09375,3.69141-1.09375,5.76172,0,2.55225.43945,4.6875,1.31836,6.40625s2.1582,2.99512,3.83789,3.82812c1.67969.8335,3.46387,1.25,5.35156,1.25,1.64062,0,3.24219-.31543,4.80469-.94727,1.5625-.63135,2.74707-1.30518,3.55469-2.02148v-5.33203h-8.41797Z" fill="#231f20"/>
    <path d="M164.35084,48.53576l10.99609-28.63281h4.08203l11.71875,28.63281h-4.31641l-3.33984-8.67188h-11.97266l-3.14453,8.67188h-4.02344ZM172.61256,36.77794h9.70703l-2.98828-7.92969c-.91113-2.40869-1.58887-4.3877-2.03125-5.9375-.36426,1.83594-.87891,3.65918-1.54297,5.46875l-3.14453,8.39844Z" fill="#231f20"/>
  </g>
</svg>